<svg width="110" height="127" viewBox="0 0 110 127" fill="none" xmlns="http://www.w3.org/2000/svg">
<path d="M48.8889 77.3043C48.8889 75.8399 48.337 74.4354 47.3547 73.3999C46.3724 72.3643 45.04 71.7826 43.6508 71.7826H23.1349C22.3897 71.7826 21.6518 71.9373 20.9634 72.2379C20.2749 72.5386 19.6493 72.9792 19.1224 73.5346C18.5955 74.0901 18.1775 74.7496 17.8923 75.4753C17.6071 76.2011 17.4603 76.9789 17.4603 77.7645V92.029H12.6588C11.9136 92.029 11.1757 92.1837 10.4872 92.4843C9.79871 92.7849 9.17314 93.2256 8.64621 93.781C8.11927 94.3365 7.70128 94.9959 7.41611 95.7217C7.13093 96.4474 6.98415 97.2253 6.98415 98.0109V121.478C6.98415 121.966 7.16811 122.435 7.49555 122.78C7.823 123.125 8.26711 123.319 8.73019 123.319H15.7143V115.036C15.7143 114.304 15.9902 113.602 16.4814 113.084C16.9726 112.566 17.6387 112.275 18.3334 112.275H37.5397C38.2343 112.275 38.9005 112.566 39.3917 113.084C39.8828 113.602 40.1588 114.304 40.1588 115.036V123.319H47.1429C47.606 123.319 48.0501 123.125 48.3775 122.78C48.705 122.435 48.8889 121.966 48.8889 121.478V77.3043ZM19.2064 115.957V123.319H26.1905V115.957H19.2064ZM29.6826 115.957V123.319H36.6667V115.957H29.6826ZM34.9207 83.7464C34.9207 83.0141 35.1966 82.3119 35.6878 81.7941C36.1789 81.2764 36.8451 80.9855 37.5397 80.9855C38.2343 80.9855 38.9005 81.2764 39.3917 81.7941C39.8828 82.3119 40.1588 83.0141 40.1588 83.7464C40.1588 84.4786 39.8828 85.1808 39.3917 85.6986C38.9005 86.2164 38.2343 86.5072 37.5397 86.5072C36.8451 86.5072 36.1789 86.2164 35.6878 85.6986C35.1966 85.1808 34.9207 84.4786 34.9207 83.7464ZM34.9207 92.9493C34.9207 92.217 35.1966 91.5148 35.6878 90.997C36.1789 90.4793 36.8451 90.1884 37.5397 90.1884C38.2343 90.1884 38.9005 90.4793 39.3917 90.997C39.8828 91.5148 40.1588 92.217 40.1588 92.9493C40.1588 93.6815 39.8828 94.3837 39.3917 94.9015C38.9005 95.4193 38.2343 95.7101 37.5397 95.7101C36.8451 95.7101 36.1789 95.4193 35.6878 94.9015C35.1966 94.3837 34.9207 93.6815 34.9207 92.9493ZM37.5397 104.913C36.8451 104.913 36.1789 104.622 35.6878 104.104C35.1966 103.587 34.9207 102.884 34.9207 102.152C34.9207 101.42 35.1966 100.718 35.6878 100.2C36.1789 99.6822 36.8451 99.3913 37.5397 99.3913C38.2343 99.3913 38.9005 99.6822 39.3917 100.2C39.8828 100.718 40.1588 101.42 40.1588 102.152C40.1588 102.884 39.8828 103.587 39.3917 104.104C38.9005 104.622 38.2343 104.913 37.5397 104.913ZM26.1905 83.7464C26.1905 83.0141 26.4664 82.3119 26.9576 81.7941C27.4488 81.2764 28.1149 80.9855 28.8096 80.9855C29.5042 80.9855 30.1703 81.2764 30.6615 81.7941C31.1527 82.3119 31.4286 83.0141 31.4286 83.7464C31.4286 84.4786 31.1527 85.1808 30.6615 85.6986C30.1703 86.2164 29.5042 86.5072 28.8096 86.5072C28.1149 86.5072 27.4488 86.2164 26.9576 85.6986C26.4664 85.1808 26.1905 84.4786 26.1905 83.7464ZM28.8096 95.7101C28.1149 95.7101 27.4488 95.4193 26.9576 94.9015C26.4664 94.3837 26.1905 93.6815 26.1905 92.9493C26.1905 92.217 26.4664 91.5148 26.9576 90.997C27.4488 90.4793 28.1149 90.1884 28.8096 90.1884C29.5042 90.1884 30.1703 90.4793 30.6615 90.997C31.1527 91.5148 31.4286 92.217 31.4286 92.9493C31.4286 93.6815 31.1527 94.3837 30.6615 94.9015C30.1703 95.4193 29.5042 95.7101 28.8096 95.7101ZM26.1905 102.152C26.1905 101.42 26.4664 100.718 26.9576 100.2C27.4488 99.6822 28.1149 99.3913 28.8096 99.3913C29.5042 99.3913 30.1703 99.6822 30.6615 100.2C31.1527 100.718 31.4286 101.42 31.4286 102.152C31.4286 102.884 31.1527 103.587 30.6615 104.104C30.1703 104.622 29.5042 104.913 28.8096 104.913C28.1149 104.913 27.4488 104.622 26.9576 104.104C26.4664 103.587 26.1905 102.884 26.1905 102.152ZM20.0794 104.913C19.3848 104.913 18.7186 104.622 18.2274 104.104C17.7363 103.587 17.4603 102.884 17.4603 102.152C17.4603 101.42 17.7363 100.718 18.2274 100.2C18.7186 99.6822 19.3848 99.3913 20.0794 99.3913C20.774 99.3913 21.4402 99.6822 21.9313 100.2C22.4225 100.718 22.6984 101.42 22.6984 102.152C22.6984 102.884 22.4225 103.587 21.9313 104.104C21.4402 104.622 20.774 104.913 20.0794 104.913Z" fill="#45B7FB"/>
<g clip-path="url(#clip0_15_43)">
<path d="M50.8444 38.6522H71.3778C72.3595 38.6522 73.301 39.3373 73.9952 40.557C74.6894 41.7766 75.0793 43.4307 75.0793 45.1555V130.681H66.3492V121.478H55.873V130.681H47.1428V45.1555C47.1428 43.4307 47.5328 41.7766 48.227 40.557C48.9212 39.3373 49.8627 38.6522 50.8444 38.6522ZM66.3492 106.14H69.8413V100.005H66.3492V106.14ZM66.3492 90.8019H69.8413V84.6667H66.3492V90.8019ZM66.3492 75.4638H69.8413V69.3285H66.3492V75.4638ZM66.3492 60.1256H69.8413V53.9903H66.3492V60.1256ZM59.3651 106.14H62.8571V100.005H59.3651V106.14ZM59.3651 90.8019H62.8571V84.6667H59.3651V90.8019ZM59.3651 75.4638H62.8571V69.3285H59.3651V75.4638ZM59.3651 60.1256H62.8571V53.9903H59.3651V60.1256ZM52.3809 106.14H55.873V100.005H52.3809V106.14ZM52.3809 90.8019H55.873V84.6667H52.3809V90.8019ZM52.3809 75.4638H55.873V69.3285H52.3809V75.4638ZM52.3809 60.1256H55.873V53.9903H52.3809V60.1256Z" fill="#5071E8"/>
</g>
<path d="M23.243 57.314L19 53.07L20.414 51.656L23.243 54.484L28.899 48.827L30.314 50.242L23.243 57.312V57.314Z" fill="#549871"/>
<path fill-rule="evenodd" clip-rule="evenodd" d="M14 53C14 46.925 18.925 42 25 42C31.075 42 36 46.925 36 53C36 59.075 31.075 64 25 64C18.925 64 14 59.075 14 53ZM25 62C23.8181 62 22.6478 61.7672 21.5558 61.3149C20.4639 60.8626 19.4718 60.1997 18.636 59.364C17.8003 58.5282 17.1374 57.5361 16.6851 56.4442C16.2328 55.3522 16 54.1819 16 53C16 51.8181 16.2328 50.6478 16.6851 49.5558C17.1374 48.4639 17.8003 47.4718 18.636 46.636C19.4718 45.8003 20.4639 45.1374 21.5558 44.6851C22.6478 44.2328 23.8181 44 25 44C27.3869 44 29.6761 44.9482 31.364 46.636C33.0518 48.3239 34 50.6131 34 53C34 55.3869 33.0518 57.6761 31.364 59.364C29.6761 61.0518 27.3869 62 25 62Z" fill="#549871"/>
<defs>
<clipPath id="clip0_15_43">
<rect width="62.8571" height="110.435" fill="white" transform="matrix(-1 0 0 1 110 16.5652)"/>
</clipPath>
</defs>
</svg>
