<svg width="105" height="114" viewBox="0 0 105 114" fill="none" xmlns="http://www.w3.org/2000/svg">
<path d="M46.2609 69.3913C46.2609 68.0767 45.7387 66.816 44.8091 65.8865C43.8796 64.957 42.6189 64.4348 41.3043 64.4348H21.8913C21.1862 64.4348 20.4879 64.5736 19.8365 64.8435C19.185 65.1133 18.5931 65.5089 18.0944 66.0075C17.5958 66.5061 17.2003 67.098 16.9305 67.7495C16.6606 68.4009 16.5217 69.0992 16.5217 69.8043V82.6087H11.9783C11.2731 82.6087 10.5749 82.7476 9.92341 83.0174C9.27195 83.2872 8.68001 83.6828 8.1814 84.1814C7.68279 84.68 7.28727 85.2719 7.01742 85.9234C6.74758 86.5749 6.60869 87.2731 6.60869 87.9782V109.043C6.60869 109.482 6.78276 109.902 7.0926 110.212C7.40244 110.522 7.82268 110.696 8.26087 110.696H14.8696V103.261C14.8696 102.604 15.1307 101.973 15.5954 101.508C16.0602 101.044 16.6905 100.783 17.3478 100.783H35.5217C36.179 100.783 36.8094 101.044 37.2741 101.508C37.7389 101.973 38 102.604 38 103.261V110.696H44.6087C45.0469 110.696 45.4671 110.522 45.777 110.212C46.0868 109.902 46.2609 109.482 46.2609 109.043V69.3913ZM18.1739 104.087V110.696H24.7826V104.087H18.1739ZM28.087 104.087V110.696H34.6956V104.087H28.087ZM33.0435 75.1739C33.0435 74.5166 33.3046 73.8863 33.7693 73.4215C34.2341 72.9567 34.8645 72.6956 35.5217 72.6956C36.179 72.6956 36.8094 72.9567 37.2741 73.4215C37.7389 73.8863 38 74.5166 38 75.1739C38 75.8312 37.7389 76.4615 37.2741 76.9263C36.8094 77.391 36.179 77.6521 35.5217 77.6521C34.8645 77.6521 34.2341 77.391 33.7693 76.9263C33.3046 76.4615 33.0435 75.8312 33.0435 75.1739ZM33.0435 83.4348C33.0435 82.7775 33.3046 82.1471 33.7693 81.6824C34.2341 81.2176 34.8645 80.9565 35.5217 80.9565C36.179 80.9565 36.8094 81.2176 37.2741 81.6824C37.7389 82.1471 38 82.7775 38 83.4348C38 84.092 37.7389 84.7224 37.2741 85.1871C36.8094 85.6519 36.179 85.913 35.5217 85.913C34.8645 85.913 34.2341 85.6519 33.7693 85.1871C33.3046 84.7224 33.0435 84.092 33.0435 83.4348ZM35.5217 94.1739C34.8645 94.1739 34.2341 93.9128 33.7693 93.448C33.3046 92.9833 33.0435 92.3529 33.0435 91.6956C33.0435 91.0383 33.3046 90.408 33.7693 89.9432C34.2341 89.4785 34.8645 89.2174 35.5217 89.2174C36.179 89.2174 36.8094 89.4785 37.2741 89.9432C37.7389 90.408 38 91.0383 38 91.6956C38 92.3529 37.7389 92.9833 37.2741 93.448C36.8094 93.9128 36.179 94.1739 35.5217 94.1739ZM24.7826 75.1739C24.7826 74.5166 25.0437 73.8863 25.5085 73.4215C25.9732 72.9567 26.6036 72.6956 27.2609 72.6956C27.9181 72.6956 28.5485 72.9567 29.0133 73.4215C29.478 73.8863 29.7391 74.5166 29.7391 75.1739C29.7391 75.8312 29.478 76.4615 29.0133 76.9263C28.5485 77.391 27.9181 77.6521 27.2609 77.6521C26.6036 77.6521 25.9732 77.391 25.5085 76.9263C25.0437 76.4615 24.7826 75.8312 24.7826 75.1739ZM27.2609 85.913C26.6036 85.913 25.9732 85.6519 25.5085 85.1871C25.0437 84.7224 24.7826 84.092 24.7826 83.4348C24.7826 82.7775 25.0437 82.1471 25.5085 81.6824C25.9732 81.2176 26.6036 80.9565 27.2609 80.9565C27.9181 80.9565 28.5485 81.2176 29.0133 81.6824C29.478 82.1471 29.7391 82.7775 29.7391 83.4348C29.7391 84.092 29.478 84.7224 29.0133 85.1871C28.5485 85.6519 27.9181 85.913 27.2609 85.913ZM24.7826 91.6956C24.7826 91.0383 25.0437 90.408 25.5085 89.9432C25.9732 89.4785 26.6036 89.2174 27.2609 89.2174C27.9181 89.2174 28.5485 89.4785 29.0133 89.9432C29.478 90.408 29.7391 91.0383 29.7391 91.6956C29.7391 92.3529 29.478 92.9833 29.0133 93.448C28.5485 93.9128 27.9181 94.1739 27.2609 94.1739C26.6036 94.1739 25.9732 93.9128 25.5085 93.448C25.0437 92.9833 24.7826 92.3529 24.7826 91.6956ZM19 94.1739C18.3427 94.1739 17.7124 93.9128 17.2476 93.448C16.7828 92.9833 16.5217 92.3529 16.5217 91.6956C16.5217 91.0383 16.7828 90.408 17.2476 89.9432C17.7124 89.4785 18.3427 89.2174 19 89.2174C19.6573 89.2174 20.2876 89.4785 20.7524 89.9432C21.2172 90.408 21.4783 91.0383 21.4783 91.6956C21.4783 92.3529 21.2172 92.9833 20.7524 93.448C20.2876 93.9128 19.6573 94.1739 19 94.1739Z" fill="#45B7FB"/>
<g clip-path="url(#clip0_15_29)">
<path d="M48.1113 34.6957H67.5408C68.4698 34.6957 69.3607 35.3107 70.0176 36.4055C70.6744 37.5003 71.0435 38.9851 71.0435 40.5334V117.304H62.7826V109.044H52.8695V117.304H44.6087V40.5334C44.6087 38.9851 44.9777 37.5003 45.6346 36.4055C46.2914 35.3107 47.1823 34.6957 48.1113 34.6957ZM62.7826 95.2754H66.0869V89.7681H62.7826V95.2754ZM62.7826 81.5073H66.0869V76H62.7826V81.5073ZM62.7826 67.7392H66.0869V62.2319H62.7826V67.7392ZM62.7826 53.971H66.0869V48.4638H62.7826V53.971ZM56.1739 95.2754H59.4782V89.7681H56.1739V95.2754ZM56.1739 81.5073H59.4782V76H56.1739V81.5073ZM56.1739 67.7392H59.4782V62.2319H56.1739V67.7392ZM56.1739 53.971H59.4782V48.4638H56.1739V53.971ZM49.5652 95.2754H52.8695V89.7681H49.5652V95.2754ZM49.5652 81.5073H52.8695V76H49.5652V81.5073ZM49.5652 67.7392H52.8695V62.2319H49.5652V67.7392ZM49.5652 53.971H52.8695V48.4638H49.5652V53.971Z" fill="#5071E8"/>
</g>
<defs>
<clipPath id="clip0_15_29">
<rect width="59.4783" height="99.1304" fill="white" transform="matrix(-1 0 0 1 104.087 14.8696)"/>
</clipPath>
</defs>
</svg>
