<svg width="83" height="115" viewBox="0 0 83 115" fill="none" xmlns="http://www.w3.org/2000/svg">
<g clip-path="url(#clip0_15_21)">
<path d="M29.6032 70.2608C29.6032 68.9463 30.1249 67.6856 31.0537 66.7561C31.9825 65.8265 33.2421 65.3043 34.5556 65.3043H53.9524C54.6569 65.3043 55.3546 65.4432 56.0055 65.7131C56.6564 65.9829 57.2479 66.3784 57.7461 66.877C58.2443 67.3756 58.6395 67.9676 58.9091 68.619C59.1787 69.2705 59.3175 69.9687 59.3175 70.6739V83.4782H63.8571C64.5617 83.4782 65.2594 83.6171 65.9103 83.887C66.5612 84.1568 67.1526 84.5523 67.6508 85.0509C68.149 85.5496 68.5442 86.1415 68.8138 86.793C69.0835 87.4444 69.2222 88.1427 69.2222 88.8478V109.913C69.2222 110.351 69.0483 110.771 68.7387 111.081C68.4291 111.391 68.0092 111.565 67.5714 111.565H60.9683V104.13C60.9683 103.473 60.7074 102.843 60.243 102.378C59.7786 101.913 59.1488 101.652 58.4921 101.652H40.3333C39.6766 101.652 39.0468 101.913 38.5824 102.378C38.118 102.843 37.8571 103.473 37.8571 104.13V111.565H31.254C30.8162 111.565 30.3963 111.391 30.0867 111.081C29.7771 110.771 29.6032 110.351 29.6032 109.913V70.2608ZM57.6667 104.956V111.565H51.0635V104.956H57.6667ZM47.7619 104.956V111.565H41.1587V104.956H47.7619ZM42.8095 76.0435C42.8095 75.3862 42.5486 74.7558 42.0843 74.2911C41.6199 73.8263 40.9901 73.5652 40.3333 73.5652C39.6766 73.5652 39.0468 73.8263 38.5824 74.2911C38.118 74.7558 37.8571 75.3862 37.8571 76.0435C37.8571 76.7007 38.118 77.3311 38.5824 77.7958C39.0468 78.2606 39.6766 78.5217 40.3333 78.5217C40.9901 78.5217 41.6199 78.2606 42.0843 77.7958C42.5486 77.3311 42.8095 76.7007 42.8095 76.0435ZM42.8095 84.3043C42.8095 83.647 42.5486 83.0167 42.0843 82.5519C41.6199 82.0872 40.9901 81.8261 40.3333 81.8261C39.6766 81.8261 39.0468 82.0872 38.5824 82.5519C38.118 83.0167 37.8571 83.647 37.8571 84.3043C37.8571 84.9616 38.118 85.592 38.5824 86.0567C39.0468 86.5215 39.6766 86.7826 40.3333 86.7826C40.9901 86.7826 41.6199 86.5215 42.0843 86.0567C42.5486 85.592 42.8095 84.9616 42.8095 84.3043ZM40.3333 95.0435C40.9901 95.0435 41.6199 94.7823 42.0843 94.3176C42.5486 93.8528 42.8095 93.2225 42.8095 92.5652C42.8095 91.9079 42.5486 91.2776 42.0843 90.8128C41.6199 90.348 40.9901 90.0869 40.3333 90.0869C39.6766 90.0869 39.0468 90.348 38.5824 90.8128C38.118 91.2776 37.8571 91.9079 37.8571 92.5652C37.8571 93.2225 38.118 93.8528 38.5824 94.3176C39.0468 94.7823 39.6766 95.0435 40.3333 95.0435ZM51.0635 76.0435C51.0635 75.3862 50.8026 74.7558 50.3382 74.2911C49.8739 73.8263 49.244 73.5652 48.5873 73.5652C47.9306 73.5652 47.3008 73.8263 46.8364 74.2911C46.372 74.7558 46.1111 75.3862 46.1111 76.0435C46.1111 76.7007 46.372 77.3311 46.8364 77.7958C47.3008 78.2606 47.9306 78.5217 48.5873 78.5217C49.244 78.5217 49.8739 78.2606 50.3382 77.7958C50.8026 77.3311 51.0635 76.7007 51.0635 76.0435ZM48.5873 86.7826C49.244 86.7826 49.8739 86.5215 50.3382 86.0567C50.8026 85.592 51.0635 84.9616 51.0635 84.3043C51.0635 83.647 50.8026 83.0167 50.3382 82.5519C49.8739 82.0872 49.244 81.8261 48.5873 81.8261C47.9306 81.8261 47.3008 82.0872 46.8364 82.5519C46.372 83.0167 46.1111 83.647 46.1111 84.3043C46.1111 84.9616 46.372 85.592 46.8364 86.0567C47.3008 86.5215 47.9306 86.7826 48.5873 86.7826ZM51.0635 92.5652C51.0635 91.9079 50.8026 91.2776 50.3382 90.8128C49.8739 90.348 49.244 90.0869 48.5873 90.0869C47.9306 90.0869 47.3008 90.348 46.8364 90.8128C46.372 91.2776 46.1111 91.9079 46.1111 92.5652C46.1111 93.2225 46.372 93.8528 46.8364 94.3176C47.3008 94.7823 47.9306 95.0435 48.5873 95.0435C49.244 95.0435 49.8739 94.7823 50.3382 94.3176C50.8026 93.8528 51.0635 93.2225 51.0635 92.5652ZM56.8413 95.0435C57.498 95.0435 58.1278 94.7823 58.5922 94.3176C59.0566 93.8528 59.3175 93.2225 59.3175 92.5652C59.3175 91.9079 59.0566 91.2776 58.5922 90.8128C58.1278 90.348 57.498 90.0869 56.8413 90.0869C56.1845 90.0869 55.5547 90.348 55.0903 90.8128C54.626 91.2776 54.3651 91.9079 54.3651 92.5652C54.3651 93.2225 54.626 93.8528 55.0903 94.3176C55.5547 94.7823 56.1845 95.0435 56.8413 95.0435Z" fill="#45B7FB"/>
</g>
<g clip-path="url(#clip1_15_21)">
<path d="M25.9289 35.6957H6.51555C5.58738 35.6957 4.69722 36.3107 4.0409 37.4055C3.38458 38.5003 3.01587 39.9851 3.01587 41.5334V118.304H11.2698V110.044H21.1746V118.304H29.4286V41.5334C29.4286 39.9851 29.0599 38.5003 28.4035 37.4055C27.7472 36.3107 26.8571 35.6957 25.9289 35.6957ZM11.2698 96.2754H7.96825V90.7681H11.2698V96.2754ZM11.2698 82.5073H7.96825V77H11.2698V82.5073ZM11.2698 68.7392H7.96825V63.2319H11.2698V68.7392ZM11.2698 54.971H7.96825V49.4638H11.2698V54.971ZM17.873 96.2754H14.5714V90.7681H17.873V96.2754ZM17.873 82.5073H14.5714V77H17.873V82.5073ZM17.873 68.7392H14.5714V63.2319H17.873V68.7392ZM17.873 54.971H14.5714V49.4638H17.873V54.971ZM24.4762 96.2754H21.1746V90.7681H24.4762V96.2754ZM24.4762 82.5073H21.1746V77H24.4762V82.5073ZM24.4762 68.7392H21.1746V63.2319H24.4762V68.7392ZM24.4762 54.971H21.1746V49.4638H24.4762V54.971Z" fill="#5071E8"/>
</g>
<path d="M13.4921 1.65216C13.8204 1.65216 14.1353 1.78271 14.3675 2.01509C14.5997 2.24748 14.7302 2.56265 14.7302 2.89129V5.94781L17.5695 5.37946C20.2946 4.83377 23.1194 5.09324 25.6997 6.12625L26.0364 6.26007C28.6132 7.29194 31.4492 7.48503 34.1418 6.8119C34.4339 6.73884 34.7387 6.73335 35.0331 6.79585C35.3276 6.85834 35.604 6.98717 35.8412 7.17256C36.0785 7.35794 36.2704 7.59501 36.4025 7.86574C36.5345 8.13648 36.6031 8.43377 36.6032 8.73503V20.9066C36.6032 21.9706 35.8785 22.8991 34.8467 23.1569L34.4935 23.2444C31.5724 23.9756 28.4954 23.7669 25.6997 22.648C23.1199 21.6152 20.2957 21.3557 17.5712 21.9012L14.7302 22.4696V35.9348C14.7302 36.2634 14.5997 36.5786 14.3675 36.811C14.1353 37.0433 13.8204 37.1739 13.4921 37.1739C13.1637 37.1739 12.8488 37.0433 12.6166 36.811C12.3844 36.5786 12.254 36.2634 12.254 35.9348V2.89129C12.254 2.56265 12.3844 2.24748 12.6166 2.01509C12.8488 1.78271 13.1637 1.65216 13.4921 1.65216Z" fill="#20E074"/>
<defs>
<clipPath id="clip0_15_21">
<rect width="52.8254" height="52.8696" fill="white" transform="translate(30 62)"/>
</clipPath>
<clipPath id="clip1_15_21">
<rect width="59.4286" height="99.1304" fill="white" transform="translate(0 15.8696)"/>
</clipPath>
</defs>
</svg>
