<svg width="110" height="111" viewBox="0 0 110 111" fill="none" xmlns="http://www.w3.org/2000/svg">
<path d="M48.8889 61.3043C48.8889 59.8399 48.337 58.4354 47.3547 57.3999C46.3724 56.3643 45.04 55.7826 43.6508 55.7826H23.1349C22.3897 55.7826 21.6518 55.9373 20.9634 56.2379C20.2749 56.5386 19.6493 56.9792 19.1224 57.5346C18.5955 58.0901 18.1775 58.7496 17.8923 59.4753C17.6071 60.2011 17.4603 60.9789 17.4603 61.7645V76.029H12.6588C11.9136 76.029 11.1757 76.1837 10.4872 76.4843C9.79871 76.7849 9.17314 77.2256 8.64621 77.781C8.11927 78.3365 7.70128 78.9959 7.41611 79.7217C7.13093 80.4474 6.98415 81.2253 6.98415 82.0109V105.478C6.98415 105.966 7.16811 106.435 7.49555 106.78C7.823 107.125 8.26711 107.319 8.73019 107.319H15.7143V99.0362C15.7143 98.304 15.9902 97.6018 16.4814 97.084C16.9726 96.5662 17.6387 96.2753 18.3334 96.2753H37.5397C38.2343 96.2753 38.9005 96.5662 39.3917 97.084C39.8828 97.6018 40.1588 98.304 40.1588 99.0362V107.319H47.1429C47.606 107.319 48.0501 107.125 48.3775 106.78C48.705 106.435 48.8889 105.966 48.8889 105.478V61.3043ZM19.2064 99.9565V107.319H26.1905V99.9565H19.2064ZM29.6826 99.9565V107.319H36.6667V99.9565H29.6826ZM34.9207 67.7464C34.9207 67.0141 35.1966 66.3119 35.6878 65.7941C36.1789 65.2764 36.8451 64.9855 37.5397 64.9855C38.2343 64.9855 38.9005 65.2764 39.3917 65.7941C39.8828 66.3119 40.1588 67.0141 40.1588 67.7464C40.1588 68.4786 39.8828 69.1808 39.3917 69.6986C38.9005 70.2164 38.2343 70.5072 37.5397 70.5072C36.8451 70.5072 36.1789 70.2164 35.6878 69.6986C35.1966 69.1808 34.9207 68.4786 34.9207 67.7464ZM34.9207 76.9493C34.9207 76.217 35.1966 75.5148 35.6878 74.997C36.1789 74.4793 36.8451 74.1884 37.5397 74.1884C38.2343 74.1884 38.9005 74.4793 39.3917 74.997C39.8828 75.5148 40.1588 76.217 40.1588 76.9493C40.1588 77.6815 39.8828 78.3837 39.3917 78.9015C38.9005 79.4193 38.2343 79.7101 37.5397 79.7101C36.8451 79.7101 36.1789 79.4193 35.6878 78.9015C35.1966 78.3837 34.9207 77.6815 34.9207 76.9493ZM37.5397 88.913C36.8451 88.913 36.1789 88.6222 35.6878 88.1044C35.1966 87.5866 34.9207 86.8844 34.9207 86.1522C34.9207 85.4199 35.1966 84.7177 35.6878 84.1999C36.1789 83.6822 36.8451 83.3913 37.5397 83.3913C38.2343 83.3913 38.9005 83.6822 39.3917 84.1999C39.8828 84.7177 40.1588 85.4199 40.1588 86.1522C40.1588 86.8844 39.8828 87.5866 39.3917 88.1044C38.9005 88.6222 38.2343 88.913 37.5397 88.913ZM26.1905 67.7464C26.1905 67.0141 26.4664 66.3119 26.9576 65.7941C27.4488 65.2764 28.1149 64.9855 28.8096 64.9855C29.5042 64.9855 30.1703 65.2764 30.6615 65.7941C31.1527 66.3119 31.4286 67.0141 31.4286 67.7464C31.4286 68.4786 31.1527 69.1808 30.6615 69.6986C30.1703 70.2164 29.5042 70.5072 28.8096 70.5072C28.1149 70.5072 27.4488 70.2164 26.9576 69.6986C26.4664 69.1808 26.1905 68.4786 26.1905 67.7464ZM28.8096 79.7101C28.1149 79.7101 27.4488 79.4193 26.9576 78.9015C26.4664 78.3837 26.1905 77.6815 26.1905 76.9493C26.1905 76.217 26.4664 75.5148 26.9576 74.997C27.4488 74.4793 28.1149 74.1884 28.8096 74.1884C29.5042 74.1884 30.1703 74.4793 30.6615 74.997C31.1527 75.5148 31.4286 76.217 31.4286 76.9493C31.4286 77.6815 31.1527 78.3837 30.6615 78.9015C30.1703 79.4193 29.5042 79.7101 28.8096 79.7101ZM26.1905 86.1522C26.1905 85.4199 26.4664 84.7177 26.9576 84.1999C27.4488 83.6822 28.1149 83.3913 28.8096 83.3913C29.5042 83.3913 30.1703 83.6822 30.6615 84.1999C31.1527 84.7177 31.4286 85.4199 31.4286 86.1522C31.4286 86.8844 31.1527 87.5866 30.6615 88.1044C30.1703 88.6222 29.5042 88.913 28.8096 88.913C28.1149 88.913 27.4488 88.6222 26.9576 88.1044C26.4664 87.5866 26.1905 86.8844 26.1905 86.1522ZM20.0794 88.913C19.3848 88.913 18.7186 88.6222 18.2274 88.1044C17.7363 87.5866 17.4603 86.8844 17.4603 86.1522C17.4603 85.4199 17.7363 84.7177 18.2274 84.1999C18.7186 83.6822 19.3848 83.3913 20.0794 83.3913C20.774 83.3913 21.4402 83.6822 21.9313 84.1999C22.4225 84.7177 22.6984 85.4199 22.6984 86.1522C22.6984 86.8844 22.4225 87.5866 21.9313 88.1044C21.4402 88.6222 20.774 88.913 20.0794 88.913Z" fill="#45B7FB"/>
<g clip-path="url(#clip0_15_53)">
<path d="M50.8444 22.6522H71.3778C72.3595 22.6522 73.301 23.3373 73.9952 24.557C74.6894 25.7766 75.0793 27.4307 75.0793 29.1555V114.681H66.3492V105.478H55.873V114.681H47.1428V29.1555C47.1428 27.4307 47.5328 25.7766 48.227 24.557C48.9212 23.3373 49.8627 22.6522 50.8444 22.6522ZM66.3492 90.1401H69.8413V84.0048H66.3492V90.1401ZM66.3492 74.8019H69.8413V68.6667H66.3492V74.8019ZM66.3492 59.4638H69.8413V53.3285H66.3492V59.4638ZM66.3492 44.1256H69.8413V37.9903H66.3492V44.1256ZM59.3651 90.1401H62.8571V84.0048H59.3651V90.1401ZM59.3651 74.8019H62.8571V68.6667H59.3651V74.8019ZM59.3651 59.4638H62.8571V53.3285H59.3651V59.4638ZM59.3651 44.1256H62.8571V37.9903H59.3651V44.1256ZM52.3809 90.1401H55.873V84.0048H52.3809V90.1401ZM52.3809 74.8019H55.873V68.6667H52.3809V74.8019ZM52.3809 59.4638H55.873V53.3285H52.3809V59.4638ZM52.3809 44.1256H55.873V37.9903H52.3809V44.1256Z" fill="#5071E8"/>
</g>
<defs>
<clipPath id="clip0_15_53">
<rect width="62.8571" height="110.435" fill="white" transform="matrix(-1 0 0 1 110 0.565216)"/>
</clipPath>
</defs>
</svg>
